<svg xmlns="http://www.w3.org/2000/svg" xmlns:xlink="http://www.w3.org/1999/xlink" width="16" height="16" viewBox="0 0 16 16"><defs><clipPath id="b"><rect width="16" height="16"/></clipPath></defs><g id="a" clip-path="url(#b)"><rect width="16" height="16" fill="none" opacity="0"/><path d="M23075.328,21180.07a.607.607,0,0,1,0-.852l1.633-1.629h-6.76a.6.6,0,0,1,0-1.2h6.76l-1.633-1.629a.6.6,0,0,1,.852-.852l2.652,2.66a.587.587,0,0,1,.18.422.6.6,0,0,1-.18.424l-2.652,2.658a.608.608,0,0,1-.852,0Zm2.2-3.082c0,.014,0,.027,0,.043l.041-.043-.041-.043C23077.521,21176.961,23077.523,21176.975,23077.523,21176.988Z" transform="translate(-31282.389 1349.608) rotate(-45)" fill="#4b576c"/></g></svg>