<svg xmlns="http://www.w3.org/2000/svg" xmlns:xlink="http://www.w3.org/1999/xlink" width="16" height="16" viewBox="0 0 16 16"><defs><clipPath id="b"><rect width="16" height="16"/></clipPath></defs><g id="a" clip-path="url(#b)"><g transform="translate(5 3)"><rect width="16" height="16" transform="translate(-5 -3)" fill="none" opacity="0"/><path d="M23449.6,20993.2a.6.6,0,0,1,0-1.2h6a.6.6,0,0,1,0,1.2Zm2.627-3.732-3-2.4a.6.6,0,0,1-.1-.842.606.606,0,0,1,.848-.094l2.025,1.625v-5.158a.6.6,0,1,1,1.2,0v5.154l2.025-1.621a.6.6,0,1,1,.754.936l-3,2.4a.6.6,0,0,1-.746,0Z" transform="translate(-23449.6 -20982.6)" fill="#0e1e3a"/></g></g></svg>