<svg xmlns="http://www.w3.org/2000/svg" xmlns:xlink="http://www.w3.org/1999/xlink" width="16" height="16" viewBox="0 0 16 16"><defs><clipPath id="b"><rect width="16" height="16"/></clipPath></defs><g id="a" clip-path="url(#b)"><path d="M2,1.2a.8.8,0,0,0-.8.8V8a.8.8,0,0,0,.8.8H7A.8.8,0,0,0,7.8,8V2A.8.8,0,0,0,7,1.2H2M2,0H7A2,2,0,0,1,9,2V8a2,2,0,0,1-2,2H2A2,2,0,0,1,0,8V2A2,2,0,0,1,2,0Z" transform="translate(1 5)" fill="#2a354b"/><path d="M5.232,9.123a.6.6,0,1,1,0-1.2,1.018,1.018,0,0,0,.895-1.1V1.7A1.018,1.018,0,0,0,5.232.6H1.495A1.018,1.018,0,0,0,.6,1.7a.6.6,0,0,1-.6.6.6.6,0,0,1-.6-.6A2.21,2.21,0,0,1,1.495-.6H5.232A2.21,2.21,0,0,1,7.327,1.7V6.819A2.21,2.21,0,0,1,5.232,9.123Z" transform="translate(6.5 1.99)" fill="#2a354b"/></g></svg>