<?xml version="1.0" encoding="utf-8"?>
<!-- Generator: Adobe Illustrator 27.7.0, SVG Export Plug-In . SVG Version: 6.00 Build 0)  -->
<svg version="1.1" id="Layer_1" xmlns="http://www.w3.org/2000/svg" xmlns:xlink="http://www.w3.org/1999/xlink" x="0px" y="0px"
	 viewBox="0 0 16 16" style="enable-background:new 0 0 16 16;" xml:space="preserve">
<style type="text/css">
	.st0{fill:none;}
	.st1{fill:#878F9D;}
</style>
<g transform="translate(4 2.607)">
	<rect x="-4" y="-2.6" class="st0" width="16" height="16"/>
	<path class="st1" d="M2.5,10.4c0-0.8,0.7-1.5,1.5-1.5s1.5,0.7,1.5,1.5S4.8,11.9,4,11.9S2.5,11.2,2.5,10.4z M2.5,5.4
		c0-0.8,0.7-1.5,1.5-1.5s1.5,0.7,1.5,1.5S4.8,6.9,4,6.9S2.5,6.2,2.5,5.4L2.5,5.4z M2.5,0.4c0-0.8,0.7-1.5,1.5-1.5s1.5,0.7,1.5,1.5
		S4.8,1.9,4,1.9S2.5,1.2,2.5,0.4z"/>
</g>
</svg>
