<svg xmlns="http://www.w3.org/2000/svg" xmlns:xlink="http://www.w3.org/1999/xlink" width="24" height="24" viewBox="0 0 24 24"><defs><clipPath id="b"><rect width="24" height="24"/></clipPath></defs><g id="a" clip-path="url(#b)"><path d="M10,16.6H4A4.605,4.605,0,0,1-.6,12V9.672a.6.6,0,0,1,.6-.6.6.6,0,0,1,.6.6V12A3.4,3.4,0,0,0,4,15.4h6A3.4,3.4,0,0,0,13.4,12V4A3.4,3.4,0,0,0,10,.6H8.22a.6.6,0,0,1-.6-.6.6.6,0,0,1,.6-.6H10A4.605,4.605,0,0,1,14.6,4v8A4.605,4.605,0,0,1,10,16.6Z" transform="translate(19 20) rotate(180)" fill="#fff"/><path d="M-9869.15-17680.166h-5.633a.6.6,0,0,1-.6-.6.6.6,0,0,1,.6-.6h5.633a.6.6,0,0,1,.6.6A.6.6,0,0,1-9869.15-17680.166Z" transform="translate(9884 17690)" fill="#fff"/><path d="M-9872.619-17680.166h-2.166a.6.6,0,0,1-.6-.6.6.6,0,0,1,.6-.6h2.166a.6.6,0,0,1,.6.6A.6.6,0,0,1-9872.619-17680.166Z" transform="translate(9884 17693)" fill="#fff"/><path d="M-9873.866-17680.166h-.917a.6.6,0,0,1-.6-.6.6.6,0,0,1,.6-.6h.917a.6.6,0,0,1,.6.6A.6.6,0,0,1-9873.866-17680.166Z" transform="translate(9884 17696)" fill="#fff"/><path d="M5.817,9.461a1.253,1.253,0,0,1-.825-.312.765.765,0,0,0-1.007,0A1.256,1.256,0,0,1,1.916,8.4a.76.76,0,0,0-.755-.647H1.145A1.255,1.255,0,0,1,.024,7.11a1.242,1.242,0,0,1,.02-1.268.767.767,0,0,0-.175-.991A1.257,1.257,0,0,1,.252,2.682a.767.767,0,0,0,.5-.872A1.255,1.255,0,0,1,2.442.4a.761.761,0,0,0,.276.052.765.765,0,0,0,.67-.4,1.257,1.257,0,0,1,2.2,0,.765.765,0,0,0,.67.4A.761.761,0,0,0,6.536.4,1.256,1.256,0,0,1,8.223,1.811a.767.767,0,0,0,.5.872,1.257,1.257,0,0,1,.382,2.169.767.767,0,0,0-.175.991,1.242,1.242,0,0,1,.02,1.267,1.256,1.256,0,0,1-1.121.64H7.817a.76.76,0,0,0-.755.647A1.252,1.252,0,0,1,5.817,9.461Zm-1.328-1.7a1.964,1.964,0,0,1,1.294.486.048.048,0,0,0,.034.015.058.058,0,0,0,.059-.049A1.954,1.954,0,0,1,7.858,6.55a.052.052,0,0,0,.051-.029.051.051,0,0,0,0-.057,1.971,1.971,0,0,1,.449-2.548.057.057,0,0,0-.017-.1,1.971,1.971,0,0,1-1.294-2.24.049.049,0,0,0-.01-.045.061.061,0,0,0-.044-.023.063.063,0,0,0-.022,0,1.956,1.956,0,0,1-.71.133A1.965,1.965,0,0,1,4.539.629a.057.057,0,0,0-.1,0A1.965,1.965,0,0,1,2.718,1.647a1.956,1.956,0,0,1-.71-.133.062.062,0,0,0-.022,0,.061.061,0,0,0-.044.023.049.049,0,0,0-.01.045A1.971,1.971,0,0,1,.639,3.818a.057.057,0,0,0-.017.1,1.971,1.971,0,0,1,.449,2.548.057.057,0,0,0,.048.086h.043A1.954,1.954,0,0,1,3.1,8.213a.058.058,0,0,0,.059.049A.049.049,0,0,0,3.2,8.247,1.964,1.964,0,0,1,4.489,7.761Z" transform="translate(21.461 12.6) rotate(90)" fill="#fff"/><path d="M1.313-.6A1.913,1.913,0,1,1-.6,1.313,1.916,1.916,0,0,1,1.313-.6Zm0,2.627A.713.713,0,1,0,.6,1.313.714.714,0,0,0,1.313,2.027Z" transform="translate(15.6 15.775)" fill="#fff"/></g></svg>