<svg xmlns="http://www.w3.org/2000/svg" xmlns:xlink="http://www.w3.org/1999/xlink" width="24" height="24" viewBox="0 0 24 24"><defs><clipPath id="b"><rect width="24" height="24"/></clipPath></defs><g id="a" clip-path="url(#b)"><rect width="24" height="24" fill="none" opacity="0"/><g transform="translate(9278.676 -20349.109) rotate(45)" fill="none"><path d="M7851.284,20955.635a.486.486,0,0,1-.242-.072l-4.647-1.508-1.435-7.361-1.431,7.33-4.656,1.539a.929.929,0,0,1-.205.029.621.621,0,0,1-.533-.3,1.078,1.078,0,0,1-.058-.977l6.082-13.787a.871.871,0,0,1,1.6,0l6.082,13.787a1.173,1.173,0,0,1-.107,1.029A.551.551,0,0,1,7851.284,20955.635Z" stroke="none"/><path d="M 7851.28369140625 20955.634765625 C 7851.4501953125 20955.634765625 7851.60888671875 20955.529296875 7851.72998046875 20955.33984375 C 7851.9228515625 20955.037109375 7851.9677734375 20954.603515625 7851.83740234375 20954.310546875 L 7845.75537109375 20940.5234375 C 7845.61279296875 20940.201171875 7845.30712890625 20940 7844.95703125 20940 C 7844.60693359375 20940 7844.30078125 20940.201171875 7844.15869140625 20940.5234375 L 7838.0771484375 20954.310546875 C 7837.93896484375 20954.623046875 7837.9619140625 20955.013671875 7838.134765625 20955.287109375 C 7838.259765625 20955.482421875 7838.44873046875 20955.591796875 7838.66796875 20955.591796875 C 7838.7294921875 20955.591796875 7838.79736328125 20955.580078125 7838.873046875 20955.5625 L 7843.52880859375 20954.0234375 L 7844.95947265625 20946.693359375 L 7846.39404296875 20954.0546875 L 7851.04150390625 20955.5625 C 7851.12255859375 20955.609375 7851.2041015625 20955.634765625 7851.28369140625 20955.634765625 M 7851.28369140625 20956.833984375 C 7851.04248046875 20956.833984375 7850.806640625 20956.78125 7850.58056640625 20956.673828125 L 7845.3515625 20954.978515625 L 7844.95849609375 20952.962890625 L 7844.572265625 20954.943359375 L 7843.9052734375 20955.162109375 L 7839.19775390625 20956.71875 L 7839.14453125 20956.73046875 C 7839.03271484375 20956.7578125 7838.86181640625 20956.791015625 7838.66796875 20956.791015625 C 7838.044921875 20956.791015625 7837.4677734375 20956.470703125 7837.1240234375 20955.93359375 L 7837.12060546875 20955.927734375 C 7836.73193359375 20955.314453125 7836.677734375 20954.5078125 7836.9794921875 20953.826171875 L 7843.060546875 20940.0390625 C 7843.392578125 20939.287109375 7844.13720703125 20938.80078125 7844.95703125 20938.80078125 C 7845.77587890625 20938.80078125 7846.52001953125 20939.28515625 7846.8525390625 20940.037109375 L 7852.935546875 20953.826171875 C 7853.22998046875 20954.48828125 7853.15478515625 20955.3359375 7852.7421875 20955.984375 C 7852.396484375 20956.525390625 7851.865234375 20956.833984375 7851.28369140625 20956.833984375 Z" stroke="none" fill="#868f99"/></g></g></svg>