<svg xmlns="http://www.w3.org/2000/svg" xmlns:xlink="http://www.w3.org/1999/xlink" width="16" height="16" viewBox="0 0 16 16"><defs><clipPath id="b"><rect width="16" height="16"/></clipPath></defs><g id="a" clip-path="url(#b)"><g opacity="0"><rect width="16" height="16" fill="#fff"/><path d="M1,1V15H15V1H1M0,0H16V16H0Z" fill="#707070"/></g><g transform="translate(-0.661 -1.069)"><path d="M1.2,1.2l.006,5.466a11.9,11.9,0,0,0,.966,1.267A12.4,12.4,0,0,0,3.222,6.653L3.216,1.2,1.2,1.2M1.1,0h0L3.311,0a1.05,1.05,0,0,1,1.1.981l.007,5.879c0,.541-2.3,2.872-2.3,2.872C2.125,9.685.009,7.4.009,6.859L0,.98A1.044,1.044,0,0,1,1.1,0Z" transform="translate(8.495 4.448) rotate(45)" fill="#2a354b"/><path d="M0,.6A.6.6,0,0,1-.6,0,.6.6,0,0,1,0-.6H3.306a.6.6,0,0,1,.6.6.6.6,0,0,1-.6.6Z" transform="translate(9.729 3.803) rotate(45)" fill="#2a354b"/><path d="M-9366.747-17097.809h-6.416a.6.6,0,0,1-.6-.6.6.6,0,0,1,.6-.6h6.416a.6.6,0,0,1,.6.6A.6.6,0,0,1-9366.747-17097.809Z" transform="translate(9376.256 17112.873)" fill="#2a354b"/><path d="M-9373.118-17097.809h-.045a.6.6,0,0,1-.6-.6.6.6,0,0,1,.6-.6h.045a.6.6,0,0,1,.6.6A.6.6,0,0,1-9373.118-17097.809Z" transform="translate(9384.638 17112.873)" fill="#2a354b"/><path d="M-9373.118-17097.809h-.045a.6.6,0,0,1-.6-.6.6.6,0,0,1,.6-.6h.045a.6.6,0,0,1,.6.6A.6.6,0,0,1-9373.118-17097.809Z" transform="translate(9386.352 17112.873)" fill="#2a354b"/></g></g></svg>
