<svg xmlns="http://www.w3.org/2000/svg" xmlns:xlink="http://www.w3.org/1999/xlink" width="24" height="24" viewBox="0 0 24 24"><defs><clipPath id="b"><rect width="24" height="24"/></clipPath></defs><g id="a" clip-path="url(#b)"><path d="M-19897.783,9679.951a1.661,1.661,0,0,1,1.58,1.3c.594,1.682-.328,4.166-.449,4.48-.018.063-.066.225-.141.467.205.295.428.6.668.9a21.284,21.284,0,0,0,1.887,2.123,17.239,17.239,0,0,1,3.133-.378,2.46,2.46,0,0,1,1.857.535,1.439,1.439,0,0,1,.4,1.574,2.3,2.3,0,0,1-1.779,1.214l-.059.008a3.271,3.271,0,0,1-.459.035,5.571,5.571,0,0,1-3.457-1.689c-1.158.248-2.1.507-2.229.542s-1.072.366-2.184.807c-1.377,2.752-2.715,4.091-4.086,4.091a2.091,2.091,0,0,1-.742-.14l-.053-.021-.049-.03a1.288,1.288,0,0,1-.648-1.088,3,3,0,0,1,1.57-2.213,18.8,18.8,0,0,1,3.131-1.541,39.206,39.206,0,0,0,1.777-4.545,7.719,7.719,0,0,1-1.492-4.309,2.657,2.657,0,0,1,.559-1.653l.039-.042.047-.034A2.167,2.167,0,0,1-19897.783,9679.951Zm.166,4.91a5.9,5.9,0,0,0,.281-3.206c-.178-.5-.381-.5-.447-.5a.9.9,0,0,0-.4.127C-19898.324,9681.515-19898.811,9682.6-19897.617,9684.861Zm1.977,4.652c-.463-.491-.939-1.049-1.426-1.667q-.091-.113-.176-.226l-.016.05-.014-.018c-.266.766-.607,1.689-1.01,2.634l.057-.022-.016.032c.605-.223,1.016-.361,1.043-.37l.029-.009c.035-.01.635-.179,1.492-.38l-.016-.015Zm4.5,1.5a2.122,2.122,0,0,0,.295-.023c.051-.007.1-.014.146-.017a1.241,1.241,0,0,0,.742-.462c.025-.07-.068-.205-.164-.308,0,0-.174-.156-.982-.156a13.043,13.043,0,0,0-1.939.186A3.514,3.514,0,0,0-19891.143,9691.016Zm-11.955,3.75c.645,0,1.451-.758,2.293-2.126a12.116,12.116,0,0,0-1.545.831c-.725.489-1.045.993-1.041,1.194,0,.011,0,.029.039.061A.82.82,0,0,0-19903.1,9694.766Z" transform="translate(19908.514 -9676.051)" fill="#2a354b"/></g></svg>