<svg xmlns="http://www.w3.org/2000/svg" xmlns:xlink="http://www.w3.org/1999/xlink" width="24" height="24" viewBox="0 0 24 24"><defs><clipPath id="b"><rect width="24" height="24"/></clipPath></defs><g id="a" clip-path="url(#b)"><rect width="24" height="24" fill="#f26c19" opacity="0"/><path d="M9562,17427.5a9.5,9.5,0,1,1,9.5,9.5A9.5,9.5,0,0,1,9562,17427.5Zm1.2,0a8.3,8.3,0,1,0,8.3-8.3A8.31,8.31,0,0,0,9563.2,17427.5Zm7.431,3.252a1,1,0,1,1,1,1A1,1,0,0,1,9570.63,17430.752Zm.4-3.252-.517-4.25a1.064,1.064,0,0,1,1.116-1.027,1.163,1.163,0,0,1,1.164,1.027l-.564,4.25a.6.6,0,0,1-1.2,0Z" transform="translate(-9559 -17415)" fill="#f26c19"/></g></svg>