<svg xmlns="http://www.w3.org/2000/svg" xmlns:xlink="http://www.w3.org/1999/xlink" width="24" height="24" viewBox="0 0 24 24"><defs><clipPath id="b"><rect width="24" height="24"/></clipPath></defs><g id="a" clip-path="url(#b)"><path d="M9909.885,17539.678l-3.135-3.129a.718.718,0,0,1-.08-.1,7.667,7.667,0,1,1,.829-.83.616.616,0,0,1,.1.082l3.13,3.129a.6.6,0,0,1,0,.85.6.6,0,0,1-.845,0Zm-14.632-9.033a6.444,6.444,0,1,0,6.444-6.443A6.453,6.453,0,0,0,9895.253,17530.645Zm5.788,2.229v-1.607h-1.5a.6.6,0,1,1,0-1.2h1.5v-1.607a.6.6,0,0,1,1.2,0v1.607h1.5a.6.6,0,1,1,0,1.2h-1.5v1.607a.6.6,0,0,1-1.2,0Z" transform="translate(-9890.479 -17519.43)" fill="#2a354b"/></g></svg>