<svg xmlns="http://www.w3.org/2000/svg" xmlns:xlink="http://www.w3.org/1999/xlink" width="24" height="24" viewBox="0 0 24 24"><defs><clipPath id="b"><rect width="24" height="24"/></clipPath></defs><g id="a" clip-path="url(#b)"><path d="M9974.667,17537.184a.6.6,0,0,1,.85-.846l1.329,1.33v-3.984a.6.6,0,0,1,1.2,0v3.984l1.33-1.33a.6.6,0,0,1,.845,0,.591.591,0,0,1,0,.846l-2.773,2.777Zm7.633-2.924a.577.577,0,0,1-.176-.422.6.6,0,0,1,.176-.428l1.325-1.324h-4.02a.6.6,0,0,1,0-1.2h4.023l-1.329-1.33a.6.6,0,0,1,0-.846.6.6,0,0,1,.85,0l2.773,2.773-2.773,2.777a.6.6,0,0,1-.85,0Zm-10.564,0-2.773-2.777,2.773-2.777a.6.6,0,0,1,1.025.428.577.577,0,0,1-.176.422l-1.329,1.33h3.785a.6.6,0,1,1,0,1.2h-3.785l1.329,1.328a.6.6,0,0,1-.423,1.025A.606.606,0,0,1,9971.735,17534.26Zm5.11-5.189v-3.777l-1.329,1.33a.6.6,0,0,1-.85-.85l2.777-2.773,2.773,2.773a.6.6,0,0,1,0,.85.6.6,0,0,1-.845,0l-1.33-1.33v3.777a.6.6,0,1,1-1.2,0Z" transform="translate(-9965.443 -17519.852)" fill="#2a354b"/></g></svg>