<svg xmlns="http://www.w3.org/2000/svg" xmlns:xlink="http://www.w3.org/1999/xlink" width="24" height="24" viewBox="0 0 24 24"><defs><clipPath id="b"><rect width="24" height="24"/></clipPath></defs><g id="a" clip-path="url(#b)"><path d="M9665.24,17291.535a.6.6,0,1,1,1.15-.334,7.558,7.558,0,0,0,7.211,5.8,7.4,7.4,0,0,0,0-14.8c-.178,0-.352.008-.529.021a.6.6,0,0,1-.639-.555v-.045a.6.6,0,0,1,.556-.6c.2-.014.408-.023.612-.023a8.6,8.6,0,0,1,0,17.2A8.731,8.731,0,0,1,9665.24,17291.535Zm11.4.568-3.321-1.8a.6.6,0,0,1-.317-.525v-5.184a.6.6,0,1,1,1.2,0v4.824l3,1.627a.6.6,0,0,1-.286,1.129A.543.543,0,0,1,9676.637,17292.1Zm-11.635-2.5a8.53,8.53,0,0,1,.265-2.127.6.6,0,1,1,1.159.295,7.615,7.615,0,0,0-.226,1.832.6.6,0,0,1-1.2,0Zm1.289-3.309a.6.6,0,0,1-.312-.525.577.577,0,0,1,.074-.291,8.63,8.63,0,0,1,1.254-1.736.6.6,0,1,1,.877.82,7.339,7.339,0,0,0-1.081,1.494.6.6,0,0,1-.525.311A.607.607,0,0,1,9666.291,17286.291Zm2.479-3.1a.632.632,0,0,1-.095-.326.606.606,0,0,1,.277-.5,8.8,8.8,0,0,1,1.932-.924.6.6,0,0,1,.383,1.137,7.451,7.451,0,0,0-1.668.795.58.58,0,0,1-.323.1A.606.606,0,0,1,9668.77,17283.191Z" transform="translate(-9661.6 -17277.6)" fill="#f33134"/></g></svg>