<svg xmlns="http://www.w3.org/2000/svg" xmlns:xlink="http://www.w3.org/1999/xlink" width="24" height="24" viewBox="0 0 24 24"><defs><clipPath id="b"><rect width="24" height="24"/></clipPath></defs><g id="a" clip-path="url(#b)"><path d="M9.275,1.2A8.075,8.075,0,1,0,17.35,9.275,8.084,8.084,0,0,0,9.275,1.2m0-1.2A9.275,9.275,0,1,1,0,9.275,9.275,9.275,0,0,1,9.275,0Z" transform="translate(-1.117 12) rotate(-45)" fill="#868f99"/><path d="M0,6.019a.6.6,0,0,1-.6-.6V0A.6.6,0,0,1,0-.6.6.6,0,0,1,.6,0V5.419A.6.6,0,0,1,0,6.019Z" transform="translate(18.309 18.31) rotate(-45)" fill="#868f99"/><path d="M14546.146-17160.461l-2.3-2.3a.6.6,0,0,1,0-.848.6.6,0,0,1,.849,0l1.364,1.367,3.817-4.594a.6.6,0,0,1,.846-.078.6.6,0,0,1,.078.844Z" transform="translate(-14535.209 17175.84)" fill="#868f99"/></g></svg>