<svg xmlns="http://www.w3.org/2000/svg" xmlns:xlink="http://www.w3.org/1999/xlink" width="24" height="24" viewBox="0 0 24 24"><defs><clipPath id="b"><rect width="24" height="24"/></clipPath></defs><g id="a" clip-path="url(#b)"><path d="M8.5,1.2a7.3,7.3,0,1,0,7.3,7.3A7.308,7.308,0,0,0,8.5,1.2M8.5,0A8.5,8.5,0,1,1,0,8.5,8.5,8.5,0,0,1,8.5,0Z" transform="translate(3.443 3.719)" fill="#2a354b"/><path d="M2.092-2.412a3.5,3.5,0,0,1,.158-1.1,2.821,2.821,0,0,1,.6-.9l.768-.79A1.77,1.77,0,0,0,4.107-6.39a1.361,1.361,0,0,0-.322-.962A1.215,1.215,0,0,0,2.848-7.7a1.411,1.411,0,0,0-.961.316,1.07,1.07,0,0,0-.363.85H.439a1.974,1.974,0,0,1,.677-1.532,2.531,2.531,0,0,1,1.731-.583,2.389,2.389,0,0,1,1.726.594,2.153,2.153,0,0,1,.618,1.629,2.944,2.944,0,0,1-.949,2.018L3.6-3.775a1.967,1.967,0,0,0-.428,1.363ZM2.045-.551A.646.646,0,0,1,2.206-1a.607.607,0,0,1,.478-.18.617.617,0,0,1,.48.18.639.639,0,0,1,.164.447.618.618,0,0,1-.164.441.628.628,0,0,1-.48.174A.618.618,0,0,1,2.206-.11.624.624,0,0,1,2.045-.551Z" transform="translate(9.185 16.292)" fill="#2a354b"/><path transform="translate(-1308.546 -98.016)" fill="#2a354b"/></g></svg>