<svg xmlns="http://www.w3.org/2000/svg" xmlns:xlink="http://www.w3.org/1999/xlink" width="24" height="24" viewBox="0 0 24 24"><defs><clipPath id="b"><rect width="24" height="24"/></clipPath></defs><g id="a" clip-path="url(#b)"><path d="M66.274-45.591a.6.6,0,0,1-.436-.188L63-48.791a.6.6,0,0,1,.025-.848.6.6,0,0,1,.848.025l2.4,2.545,7.017-7.558a.6.6,0,0,1,.848-.031.6.6,0,0,1,.031.848l-7.453,8.027A.6.6,0,0,1,66.274-45.591Z" transform="translate(-56.258 61.205)" fill="#fff"/><rect width="24" height="24" fill="none"/></g></svg>
