<svg xmlns="http://www.w3.org/2000/svg" xmlns:xlink="http://www.w3.org/1999/xlink" width="24" height="24" viewBox="0 0 24 24"><defs><clipPath id="b"><rect width="24" height="24"/></clipPath></defs><g id="a" clip-path="url(#b)"><path d="M9946.244,17539.678l-3.13-3.129a.675.675,0,0,1-.081-.1,7.648,7.648,0,1,1,.828-.828.473.473,0,0,1,.1.082l3.13,3.129a.6.6,0,0,1,0,.85.589.589,0,0,1-.423.176A.6.6,0,0,1,9946.244,17539.678Zm-14.627-9.033a6.444,6.444,0,1,0,6.444-6.443A6.453,6.453,0,0,0,9931.617,17530.645Zm3.768.621a.6.6,0,1,1,0-1.2h5.551a.6.6,0,1,1,0,1.2Z" transform="translate(-9926.842 -17519.43)" fill="#2a354b"/></g></svg>