<svg xmlns="http://www.w3.org/2000/svg" xmlns:xlink="http://www.w3.org/1999/xlink" width="24" height="24" viewBox="0 0 24 24"><defs><clipPath id="b"><rect width="24" height="24"/></clipPath></defs><g id="a" clip-path="url(#b)"><path d="M10,16.6H4A4.605,4.605,0,0,1-.6,12V9.672a.6.6,0,0,1,.6-.6.6.6,0,0,1,.6.6V12A3.4,3.4,0,0,0,4,15.4h6A3.4,3.4,0,0,0,13.4,12V4A3.4,3.4,0,0,0,10,.6H8.22a.6.6,0,0,1-.6-.6.6.6,0,0,1,.6-.6H10A4.605,4.605,0,0,1,14.6,4v8A4.605,4.605,0,0,1,10,16.6Z" transform="translate(19 20) rotate(180)" fill="#2a354b"/><path d="M-9869.15-17680.166h-5.633a.6.6,0,0,1-.6-.6.6.6,0,0,1,.6-.6h5.633a.6.6,0,0,1,.6.6A.6.6,0,0,1-9869.15-17680.166Z" transform="translate(9884 17690)" fill="#2a354b"/><path d="M-9869.15-17680.166h-5.633a.6.6,0,0,1-.6-.6.6.6,0,0,1,.6-.6h5.633a.6.6,0,0,1,.6.6A.6.6,0,0,1-9869.15-17680.166Z" transform="translate(9884 17693)" fill="#2a354b"/><path d="M-9869.15-17680.166h-5.633a.6.6,0,0,1-.6-.6.6.6,0,0,1,.6-.6h5.633a.6.6,0,0,1,.6.6A.6.6,0,0,1-9869.15-17680.166Z" transform="translate(9884 17696)" fill="#2a354b"/><path d="M10,16.6H4A4.605,4.605,0,0,1-.6,12V9.672a.6.6,0,0,1,.6-.6.6.6,0,0,1,.6.6V12A3.4,3.4,0,0,0,4,15.4h6A3.4,3.4,0,0,0,13.4,12V4A3.4,3.4,0,0,0,10,.6H8.22a.6.6,0,0,1-.6-.6.6.6,0,0,1,.6-.6H10A4.605,4.605,0,0,1,14.6,4v8A4.605,4.605,0,0,1,10,16.6Z" transform="translate(5 4)" fill="#2a354b"/></g></svg>