<svg xmlns="http://www.w3.org/2000/svg" xmlns:xlink="http://www.w3.org/1999/xlink" width="16" height="16" viewBox="0 0 16 16"><defs><clipPath id="b"><rect width="16" height="16"/></clipPath></defs><g id="a" clip-path="url(#b)"><g transform="translate(2 2)"><rect width="12" height="12" fill="rgba(216,216,216,0)" opacity="0"/><path d="M3,3.6a.6.6,0,0,1-.424-.176l-3-3a.6.6,0,0,1,0-.849.6.6,0,0,1,.849,0L3,2.151,5.576-.424a.6.6,0,0,1,.849,0,.6.6,0,0,1,0,.849l-3,3A.6.6,0,0,1,3,3.6Z" transform="translate(3 5)" fill="#231f20"/></g></g></svg>