<svg xmlns="http://www.w3.org/2000/svg" xmlns:xlink="http://www.w3.org/1999/xlink" width="12" height="12" viewBox="0 0 12 12"><defs><clipPath id="b"><rect width="12" height="12"/></clipPath></defs><g id="a" clip-path="url(#b)"><text transform="translate(-144 -144)" fill="#707070" font-size="20" font-family="SegoeUI, Segoe UI"><tspan x="0" y="22">Decenting</tspan></text><text transform="translate(-141 -141)" fill="#707070" font-size="20" font-family="SegoeUI, Segoe UI"><tspan x="0" y="22">Decenting</tspan></text><path d="M0,.6v6a.6.6,0,0,0,1.2,0V.6A.6.6,0,1,0,0,.6ZM5.194.178l-3,3a.614.614,0,0,0-.178.426.606.606,0,0,0,.178.424l3,3a.6.6,0,1,0,.845-.85L3.465,3.6,6.039,1.023a.6.6,0,0,0,0-.846.6.6,0,0,0-.845,0Z" transform="translate(9.216 9.601) rotate(180)" fill="#2a354b"/></g></svg>