<svg xmlns="http://www.w3.org/2000/svg" xmlns:xlink="http://www.w3.org/1999/xlink" width="16" height="16" viewBox="0 0 16 16"><defs><clipPath id="b"><rect width="16" height="16"/></clipPath></defs><g id="a" clip-path="url(#b)"><g fill="#fff" stroke="#707070" stroke-width="1" opacity="0"><rect width="16" height="16" stroke="none"/><rect x="0.5" y="0.5" width="15" height="15" fill="none"/></g><rect width="16" height="16" fill="rgba(216,216,216,0)"/><path d="M.073,4.065,0,0" transform="translate(14.025 13.738) rotate(135)" fill="none" stroke="#231f20" stroke-linecap="round" stroke-miterlimit="10" stroke-width="1.2"/><g transform="translate(2.98 9.141) rotate(-45)" fill="none" stroke-linecap="round" stroke-linejoin="round"><path d="M3.493,1.481a1,1,0,0,1,1.728,0L7.836,5.965a1,1,0,0,1-.864,1.5H1.741a1,1,0,0,1-.864-1.5Z" stroke="none"/><path d="M 4.356742858886719 2.381597995758057 L 2.089231014251709 6.26882266998291 L 6.624250888824463 6.26882266998291 L 4.356742858886719 2.381597995758057 M 4.356742858886719 0.9846606254577637 C 4.692165374755859 0.9846606254577637 5.027587890625 1.15003776550293 5.220522880554199 1.480792999267578 L 7.83624267578125 5.964962959289551 C 8.225122451782227 6.631612777709961 7.744252681732178 7.468822956085205 6.97246265411377 7.468822956085205 L 1.741023063659668 7.468822956085205 C 0.9692330360412598 7.468822956085205 0.4883632659912109 6.631612777709961 0.8772430419921875 5.964962959289551 L 3.492962837219238 1.480792999267578 C 3.685897827148438 1.15003776550293 4.021320343017578 0.9846606254577637 4.356742858886719 0.9846606254577637 Z" stroke="none" fill="#231f20"/></g><path d="M5.252.03A4.6,4.6,0,0,1,9.364,4.681,4.686,4.686,0,0,1,4.678,9.367,4.784,4.784,0,0,1,.046,5.395" transform="translate(11.383 11.387) rotate(180)" fill="none" stroke="#231f20" stroke-linecap="round" stroke-width="1.2"/><path d="M2.6.1A1.847,1.847,0,0,1,3.887,1.947,1.932,1.932,0,0,1,1.956,3.879,2.016,2.016,0,0,1,.231,2.769" transform="translate(8.645 8.643) rotate(180)" fill="none" stroke="#231f20" stroke-linecap="round" stroke-width="0.75"/></g></svg>