<svg xmlns="http://www.w3.org/2000/svg" xmlns:xlink="http://www.w3.org/1999/xlink" width="16" height="16" viewBox="0 0 16 16"><defs><clipPath id="b"><rect width="16" height="16"/></clipPath></defs><g id="a" clip-path="url(#b)"><g opacity="0"><rect width="16" height="16" fill="#fff"/><path d="M1,1V15H15V1H1M0,0H16V16H0Z" fill="#707070"/></g><g transform="translate(-9.563 2.408)"><path d="M2,1.2a.8.8,0,0,0-.8.8v9a.8.8,0,0,0,.8.8H12a.8.8,0,0,0,.8-.8V2a.8.8,0,0,0-.8-.8H2M2,0H12a2,2,0,0,1,2,2v9a2,2,0,0,1-2,2H2a2,2,0,0,1-2-2V2A2,2,0,0,1,2,0Z" transform="translate(10.563 -0.408)" fill="#231f20"/></g><path d="M0,0H2V2H0Z" transform="translate(4 6.002)" fill="#231f20"/><rect width="2" height="2" transform="translate(4 1.002)" fill="#868f99"/><path d="M0,0H2V2H0Z" transform="translate(4 1.002)" fill="#231f20"/><rect width="2" height="2" transform="translate(10 1.002)" fill="#868f99"/><path d="M0,0H2V2H0Z" transform="translate(10 1.002)" fill="#231f20"/><path d="M0,0H2V2H0Z" transform="translate(4 9.002)" fill="#231f20"/><path d="M0,0H2V2H0Z" transform="translate(7 6.002)" fill="#231f20"/><path d="M0,0H2V2H0Z" transform="translate(10 6.002)" fill="#231f20"/><path d="M0,0H2V2H0Z" transform="translate(7 9.002)" fill="#231f20"/><path d="M0,0H2V2H0Z" transform="translate(10 9.002)" fill="#231f20"/></g></svg>