<svg xmlns="http://www.w3.org/2000/svg" xmlns:xlink="http://www.w3.org/1999/xlink" width="24" height="24" viewBox="0 0 24 24"><defs><clipPath id="b"><rect width="24" height="24"/></clipPath></defs><g id="a" clip-path="url(#b)"><path d="M10042.557,17527.549a.6.6,0,1,1,1.2,0,5.723,5.723,0,1,0,5.725-5.727l-1.2.012,1.194,1.191a.6.6,0,0,1-.85.848l-2.213-2.213a.6.6,0,0,1,0-.85l2.213-2.213a.6.6,0,0,1,.85,0,.6.6,0,0,1,0,.85l-1.187,1.186,1.191-.006a6.922,6.922,0,1,1-6.918,6.922Z" transform="translate(-10037.477 -17514.445)" fill="#2a354b"/></g></svg>