<svg xmlns="http://www.w3.org/2000/svg" width="24" height="24" viewBox="0 0 24 24"><g fill="#fff" stroke="#707070" stroke-width="1" opacity="0"><rect width="24" height="24" stroke="none"/><rect x="0.5" y="0.5" width="23" height="23" fill="none"/></g><path d="M15111.213,23213.311a1.123,1.123,0,0,0-1.421,0,1.118,1.118,0,0,1-1.824-.756,1.12,1.12,0,0,0-1.008-1,1.12,1.12,0,0,1-.757-1.824,1.109,1.109,0,0,0,0-1.422,1.12,1.12,0,0,1,.757-1.824,1.12,1.12,0,0,0,1.008-1,1.116,1.116,0,0,1,1.824-.756,1.123,1.123,0,0,0,1.421,0,1.119,1.119,0,0,1,1.824.756,1.114,1.114,0,0,0,1,1,1.118,1.118,0,0,1,.757,1.824,1.124,1.124,0,0,0,0,1.422,1.118,1.118,0,0,1-.757,1.824,1.114,1.114,0,0,0-1,1,1.123,1.123,0,0,1-1.121,1.014A1.089,1.089,0,0,1,15111.213,23213.311Zm.647-1.014a3.549,3.549,0,0,0,1.922-4.637,2.025,2.025,0,0,0-3.28-1.486,2.024,2.024,0,0,0-3.279,1.486,3.552,3.552,0,0,0,1.917,4.637,2.342,2.342,0,0,1,2.721,0Zm-13.4-.961a2.577,2.577,0,0,1-2.464-2.668v-9a2.575,2.575,0,0,1,2.464-2.67h4.694c1.049,0,1.782.746,2.709,1.795H15111a2.006,2.006,0,0,1,2,2v1.875h-1.2v-1.875a.8.8,0,0,0-.8-.8h-5.675l-.361-.4c-.815-.922-1.316-1.393-1.812-1.393h-4.694a1.381,1.381,0,0,0-1.264,1.469v9a1.381,1.381,0,0,0,1.264,1.469h6.04v1.2Zm10.537-2.318a1.5,1.5,0,1,1,1.5,1.5A1.5,1.5,0,0,1,15109,23209.018Z" transform="translate(-15093.525 -23193.285)" fill="#fff"/></svg>