<svg xmlns="http://www.w3.org/2000/svg" xmlns:xlink="http://www.w3.org/1999/xlink" width="16" height="16" viewBox="0 0 16 16"><defs><clipPath id="b"><rect width="16" height="16"/></clipPath></defs><g id="a" clip-path="url(#b)"><g opacity="0"><rect width="16" height="16" fill="#fff"/><path d="M1,1V15H15V1H1M0,0H16V16H0Z" fill="#707070"/></g><g transform="translate(9434 17079)"><circle cx="5" cy="5" r="5" transform="translate(-9431 -17076)" fill="#00a6e3"/><path d="M5,1.2A3.8,3.8,0,1,0,8.8,5,3.8,3.8,0,0,0,5,1.2M5,0A5,5,0,1,1,0,5,5,5,0,0,1,5,0Z" transform="translate(-9431 -17076)" fill="#00a6e3"/><path d="M-9786.095-17463.143l-1.561-1.766a.627.627,0,0,1,.055-.885.623.623,0,0,1,.884.057l.685.773,2.42-2.383a.625.625,0,0,1,.886.008.624.624,0,0,1-.006.883Z" transform="translate(359.302 394.736)" fill="#fff"/></g></g></svg>