<svg xmlns="http://www.w3.org/2000/svg" xmlns:xlink="http://www.w3.org/1999/xlink" width="24" height="24" viewBox="0 0 24 24"><defs><clipPath id="b"><rect width="24" height="24"/></clipPath></defs><g id="a" clip-path="url(#b)"><path d="M9.275,1.2A8.075,8.075,0,1,0,17.35,9.275,8.084,8.084,0,0,0,9.275,1.2m0-1.2A9.275,9.275,0,1,1,0,9.275,9.275,9.275,0,0,1,9.275,0Z" transform="translate(-1 12.117) rotate(-45)" fill="#868f99"/><path d="M639.606,130.187a.6.6,0,0,1-.424-1.024l4.825-4.825a.6.6,0,0,1,.849.849l-4.825,4.825A.6.6,0,0,1,639.606,130.187Z" transform="translate(-629.606 -114.762)" fill="#868f99"/><path d="M0,5.425A.6.6,0,0,1-.424,5.25a.6.6,0,0,1,0-.849L4.4-.424a.6.6,0,0,1,.849,0,.6.6,0,0,1,0,.849L.424,5.25A.6.6,0,0,1,0,5.425Z" transform="translate(14.826 10) rotate(90)" fill="#868f99"/><rect width="24" height="24" transform="translate(0 0.117)" fill="none" opacity="0"/></g></svg>