<svg xmlns="http://www.w3.org/2000/svg" xmlns:xlink="http://www.w3.org/1999/xlink" width="16" height="16" viewBox="0 0 16 16"><defs><clipPath id="b"><rect width="16" height="16"/></clipPath></defs><g id="a" clip-path="url(#b)"><g transform="translate(1 1)"><rect width="14" height="14" fill="rgba(216,216,216,0)"/></g><g transform="translate(5 3)"><path d="M.5,6.6A.6.6,0,0,1-.1,6V0A.6.6,0,0,1,.5-.6a.6.6,0,0,1,.6.6V6A.6.6,0,0,1,.5,6.6Z" transform="translate(2.5)" fill="#231f20"/><path d="M3,3a.6.6,0,0,1-.375-.132l-3-2.4A.6.6,0,0,1-.468-.375.6.6,0,0,1,.375-.468L3,1.632l2.625-2.1a.6.6,0,0,1,.843.094.6.6,0,0,1-.094.843l-3,2.4A.6.6,0,0,1,3,3Z" transform="translate(0 4)" fill="#231f20"/><path d="M6,1.1H0A.6.6,0,0,1-.6.5.6.6,0,0,1,0-.1H6A.6.6,0,0,1,6,1.1Z" transform="translate(0 9.5)" fill="#231f20"/></g></g></svg>