<svg xmlns="http://www.w3.org/2000/svg" xmlns:xlink="http://www.w3.org/1999/xlink" width="16" height="16" viewBox="0 0 16 16"><defs><clipPath id="b"><rect width="16" height="16"/></clipPath></defs><g id="a" clip-path="url(#b)"><g opacity="0"><rect width="16" height="16" fill="#fff"/><path d="M1,1V15H15V1H1M0,0H16V16H0Z" fill="#707070"/></g><path d="M8.629,12.106H2.876A3.48,3.48,0,0,1-.6,8.629V5.971a.6.6,0,0,1,.6-.6.6.6,0,0,1,.6.6V8.629a2.279,2.279,0,0,0,2.276,2.276H8.629a2.279,2.279,0,0,0,2.276-2.276V2.876A2.279,2.279,0,0,0,8.629.6H5.762a.6.6,0,0,1-.6-.6.6.6,0,0,1,.6-.6H8.629a3.48,3.48,0,0,1,3.476,3.476V8.629A3.48,3.48,0,0,1,8.629,12.106Z" transform="translate(13.506 13.506) rotate(180)" fill="#2a354b"/><path d="M-9432.111-17104.77h-4.1a.6.6,0,0,1-.6-.6.6.6,0,0,1,.6-.6h4.1a.6.6,0,0,1,.6.6A.6.6,0,0,1-9432.111-17104.77Z" transform="translate(9441.886 17111)" fill="#2a354b"/><path d="M-9432.111-17104.77h-4.1a.6.6,0,0,1-.6-.6.6.6,0,0,1,.6-.6h4.1a.6.6,0,0,1,.6.6A.6.6,0,0,1-9432.111-17104.77Z" transform="translate(9441.886 17113.121)" fill="#2a354b"/><path d="M-9433.872-17104.77h-2.341a.6.6,0,0,1-.6-.6.6.6,0,0,1,.6-.6h2.341a.6.6,0,0,1,.6.6A.6.6,0,0,1-9433.872-17104.77Z" transform="translate(9441.885 17115.242)" fill="#2a354b"/><path d="M-9432.244-17104.77h-3.969a.6.6,0,0,1-.6-.6.6.6,0,0,1,.6-.6h3.969a.6.6,0,0,1,.6.6A.6.6,0,0,1-9432.244-17104.77Z" transform="translate(9446.485 17117.666)" fill="#2a354b"/><path d="M3.966.6H0A.6.6,0,0,1-.6,0,.6.6,0,0,1,0-.6H3.966a.6.6,0,0,1,.6.6A.6.6,0,0,1,3.966.6Z" transform="translate(12.256 10.314) rotate(90)" fill="#2a354b"/></g></svg>
