<svg xmlns="http://www.w3.org/2000/svg" xmlns:xlink="http://www.w3.org/1999/xlink" width="24" height="24" viewBox="0 0 24 24"><defs><clipPath id="b"><rect width="24" height="24"/></clipPath></defs><g id="a" clip-path="url(#b)"><path d="M9771.774,17594.135l-4.01-4.01-3.814,3.814a.6.6,0,0,1-.848-.848l3.814-3.814-3.814-3.814a.6.6,0,0,1,.848-.85l3.814,3.816,4.01-4.01a.6.6,0,0,1,.848.848l-4.009,4.01,4.009,4.01a.6.6,0,0,1-.422,1.023A.605.605,0,0,1,9771.774,17594.135Z" transform="translate(-9755.365 -17577.277)" fill="#fff"/><rect width="24" height="24" fill="none"/></g></svg>
