<svg xmlns="http://www.w3.org/2000/svg" xmlns:xlink="http://www.w3.org/1999/xlink" width="59" height="57" viewBox="0 0 59 57"><defs><clipPath id="a"><rect width="56.852" height="63.292" transform="translate(0 0)" fill="none"/></clipPath><clipPath id="c"><rect width="59" height="57"/></clipPath></defs><g id="b" clip-path="url(#c)"><g transform="translate(1.103 1.354)"><g clip-path="url(#a)"><path d="M52.129,17.231v4.724H55.76s.579-4.595-3.631-4.724" fill="#d5caaf"/><path d="M23.365,2.42h23.14s4.45-.462,4.45,4.464v15.46H23.365Z" fill="#ced8dc"/><path d="M14.193,6.728c.711.691,1.281,1.343,1.381,4.349s0,11.505,0,11.505H19.96V5.942H13.176a9.156,9.156,0,0,1,1.017.786" fill="#00879c"/><path d="M55.1,25.354H10.769a.084.084,0,0,0-.087.081V50.9a.084.084,0,0,0,.087.08H51.924s2.833,0,4.045-1.289c.865-.92.883-3.145.883-3.145V27.369a2.633,2.633,0,0,0-.412-1.351,1.828,1.828,0,0,0-1.339-.664" fill="#e8e6d8"/><path d="M13.176,10.848V21.811H6.59V47.284S6.54,51.29,3.106,51.29.022,45.9.022,45.9v-31s-.594-4.057,4.369-4.057Z" fill="#d5caaf"/><path d="M1.955,40.509a.6.6,0,0,1-.6-.6V14.379a2.366,2.366,0,0,1,.509-1.81,4.205,4.205,0,0,1,3.421-1.191c3.778.008,7.274,0,7.308,0a.6.6,0,0,1,0,1.2c-.035,0-3.533.008-7.314,0a3.194,3.194,0,0,0-2.488.748,1.183,1.183,0,0,0-.252.88l.013.061V39.909A.6.6,0,0,1,1.955,40.509Z" fill="#191717"/><path d="M54.32,22.824a.6.6,0,0,1-.6-.6,3.66,3.66,0,0,0-.826-2.744,1.408,1.408,0,0,0-1.022-.361l-.048.008-.036,0h-.834a.6.6,0,1,1,0-1.2h.8a2.592,2.592,0,0,1,1.909.633,4.649,4.649,0,0,1,1.258,3.666A.6.6,0,0,1,54.32,22.824Z" fill="#191717"/><path d="M5.468,53.31A3.6,3.6,0,0,1,2.279,51.8a7.557,7.557,0,0,1-.945-4.242.6.6,0,0,1,1.2,0c0,4,1.41,4.555,2.934,4.555a1.79,1.79,0,0,0,1.363-.564c.976-1.021,1.1-3.208,1.068-3.965V24.05a.6.6,0,1,1,1.2,0V47.543c.01.266.09,3.275-1.4,4.833A2.971,2.971,0,0,1,5.468,53.31Z" fill="#191717"/><path d="M49.679,53.585a.6.6,0,1,1,0-1.2,4.512,4.512,0,0,0,3.359-1.218,5.336,5.336,0,0,0,1.32-3.45V26.982a3.358,3.358,0,0,0-.888-2.648,2.231,2.231,0,0,0-1.608-.474l-.045.007H14.1a.6.6,0,0,1,0-1.2H51.735a3.433,3.433,0,0,1,2.517.757,4.464,4.464,0,0,1,1.307,3.558V47.7a6.525,6.525,0,0,1-1.664,4.307A5.661,5.661,0,0,1,49.679,53.585Z" fill="#191717"/><path d="M33.464.6H0A.6.6,0,0,1-.6,0,.6.6,0,0,1,0-.6H33.464a.6.6,0,0,1,.6.6A.6.6,0,0,1,33.464.6Z" transform="translate(9.663 53.264)" fill="#191717"/><path d="M21.808,21.7a.6.6,0,0,1-.6-.6V0L43.287,0a9.415,9.415,0,0,1,3.4,1.037A6.326,6.326,0,0,1,50.162,6.92a.6.6,0,0,1-1.2,0A5.12,5.12,0,0,0,46.15,2.113,8.353,8.353,0,0,0,43.215,1.2H22.408V21.1A.6.6,0,0,1,21.808,21.7Z" fill="#191717"/><path d="M0,9.317a.6.6,0,0,1-.6-.6V0A.6.6,0,0,1,0-.6.6.6,0,0,1,.6,0V8.717A.6.6,0,0,1,0,9.317Z" transform="translate(49.561 14.069)" fill="#191717"/><path d="M17.125,21.7a.6.6,0,0,1-.6-.6V8.7q0-.008,0-.016c0-.037.066-3.8-2.024-4.62a.6.6,0,0,1,.22-1.158h5.239a.6.6,0,1,1,0,1.2H16.447a8.239,8.239,0,0,1,1.278,4.6V21.1A.6.6,0,0,1,17.125,21.7Z" fill="#191717"/><path d="M50.364,9.079a.8.8,0,1,1-.8-.8.8.8,0,0,1,.8.8" fill="#191717"/><path d="M47.9,53.291a.844.844,0,1,1-.843-.843.843.843,0,0,1,.843.843" fill="#191717"/><path d="M10.2.6H0A.6.6,0,0,1-.6,0,.6.6,0,0,1,0-.6H10.2a.6.6,0,0,1,.6.6A.6.6,0,0,1,10.2.6Z" transform="translate(30.588 9.561)" fill="#191717"/><path d="M10.2.6H0A.6.6,0,0,1-.6,0,.6.6,0,0,1,0-.6H10.2a.6.6,0,0,1,.6.6A.6.6,0,0,1,10.2.6Z" transform="translate(30.588 13.788)" fill="#191717"/><path d="M10.2.6H0A.6.6,0,0,1-.6,0,.6.6,0,0,1,0-.6H10.2a.6.6,0,0,1,.6.6A.6.6,0,0,1,10.2.6Z" transform="translate(30.588 17.932)" fill="#191717"/><path d="M55.787,61.539c0,.968-12.488,1.753-27.893,1.753S0,62.507,0,61.539s12.489-1.753,27.894-1.753,27.893.785,27.893,1.753" fill="#e4e5e7"/></g></g></g></svg>