<svg xmlns="http://www.w3.org/2000/svg" xmlns:xlink="http://www.w3.org/1999/xlink" width="24" height="24" viewBox="0 0 24 24"><defs><clipPath id="b"><rect width="24" height="24"/></clipPath></defs><g id="a" clip-path="url(#b)"><g transform="translate(3.021 11.502) rotate(-45)" fill="none"><path d="M6.349,0A6.349,6.349,0,1,1,0,6.349,6.349,6.349,0,0,1,6.349,0Z" stroke="none"/><path d="M 6.349114418029785 1.200004577636719 C 3.509884834289551 1.200004577636719 1.200004577636719 3.509884834289551 1.200004577636719 6.349114418029785 C 1.200004577636719 9.188344955444336 3.509884834289551 11.49822425842285 6.349114418029785 11.49822425842285 C 9.188344955444336 11.49822425842285 11.49822425842285 9.188344955444336 11.49822425842285 6.349114418029785 C 11.49822425842285 3.509884834289551 9.188344955444336 1.200004577636719 6.349114418029785 1.200004577636719 M 6.349114418029785 4.76837158203125e-06 C 9.855634689331055 4.76837158203125e-06 12.69822406768799 2.842594146728516 12.69822406768799 6.349114418029785 C 12.69822406768799 9.855634689331055 9.855634689331055 12.69822406768799 6.349114418029785 12.69822406768799 C 2.842594146728516 12.69822406768799 4.76837158203125e-06 9.855634689331055 4.76837158203125e-06 6.349114418029785 C 4.76837158203125e-06 2.842594146728516 2.842594146728516 4.76837158203125e-06 6.349114418029785 4.76837158203125e-06 Z" stroke="none" fill="#738ead"/></g><path d="M642.909,124.762l-3.3,3.3" transform="translate(-629.056 -114.709)" fill="#848fa1" stroke="#738ead" stroke-linecap="round" stroke-width="1.2"/><path d="M3.3,0,0,3.3" transform="translate(13.854 10.053) rotate(90)" fill="none" stroke="#738ead" stroke-linecap="round" stroke-width="1.2"/><rect width="24" height="24" fill="none" opacity="0"/></g></svg>