<svg xmlns="http://www.w3.org/2000/svg" xmlns:xlink="http://www.w3.org/1999/xlink" width="24" height="24" viewBox="0 0 24 24"><defs><clipPath id="b"><rect width="24" height="24"/></clipPath></defs><g id="a" clip-path="url(#b)"><path d="M9.529,12.721A10.278,10.278,0,0,1,2.39,9.756,12.4,12.4,0,0,1,.07,6.791a.591.591,0,0,1,0-.551A13.65,13.65,0,0,1,2.43,3.135,10.038,10.038,0,0,1,9.539,0a9.636,9.636,0,0,1,6.989,3.143,12.629,12.629,0,0,1,2.239,3.121.6.6,0,0,1,0,.508,11.562,11.562,0,0,1-2.2,2.971,9.857,9.857,0,0,1-7.024,2.979ZM1.292,6.516A11.92,11.92,0,0,0,3.244,8.91a8.982,8.982,0,0,0,6.285,2.611h.01c4.869,0,7.418-3.957,8.007-5.006a12.067,12.067,0,0,0-1.9-2.566,8.366,8.366,0,0,0-6.1-2.75C4.767,1.2,1.961,5.387,1.292,6.516Zm4.789-.482a3.393,3.393,0,1,1,3.4,3.395A3.392,3.392,0,0,1,6.081,6.033Zm1.2,0a2.193,2.193,0,1,0,2.2-2.191A2.195,2.195,0,0,0,7.281,6.033Zm.624,0a1.508,1.508,0,0,1,1.5-1.51.5.5,0,0,1,0,1,.512.512,0,0,0-.509.51.5.5,0,1,1-1,0Z" transform="translate(2.4 5.396)" fill="#006e74"/><path d="M3.508,0A1.008,1.008,0,0,0,2.5,1.008" transform="translate(8.303 10.422)" fill="#006e74"/><rect width="24" height="24" fill="none" opacity="0"/></g></svg>