<svg xmlns="http://www.w3.org/2000/svg" xmlns:xlink="http://www.w3.org/1999/xlink" width="16" height="16" viewBox="0 0 16 16"><defs><clipPath id="b"><rect width="16" height="16"/></clipPath></defs><g id="a" clip-path="url(#b)"><path d="M9732,17293a3,3,0,0,1-3-3v-6a3,3,0,0,1,3-3h7.808a35.753,35.753,0,0,0,3.19,3.16V17290a3,3,0,0,1-3,3Zm-1.8-9v6a1.8,1.8,0,0,0,1.8,1.8h8a1.8,1.8,0,0,0,1.8-1.8v-5.27c-.3-.277-.707-.672-1.28-1.236-.6-.6-1-1.008-1.271-1.3H9738v2.8a1,1,0,0,1-1,1h-4a1,1,0,0,1-1-1v-2.8A1.8,1.8,0,0,0,9730.2,17284Zm3,.8h3.6v-2.6h-3.6Z" transform="translate(-9727.998 -17279)" fill="#2a354b"/></g></svg>