<svg xmlns="http://www.w3.org/2000/svg" xmlns:xlink="http://www.w3.org/1999/xlink" width="24" height="24" viewBox="0 0 24 24"><defs><clipPath id="b"><rect width="24" height="24"/></clipPath></defs><g id="a" clip-path="url(#b)"><rect width="24" height="24" fill="none" opacity="0"/><g transform="translate(13.933 3.829) rotate(45)" fill="none"><path d="M8.425,9.906a.307.307,0,0,1-.153-.045L5.327,8.906,4.417,4.242,3.511,8.887l-2.95.975a.549.549,0,0,1-.13.018.394.394,0,0,1-.338-.191.687.687,0,0,1-.037-.619L3.911.332a.551.551,0,0,1,1.012,0L8.776,9.068a.743.743,0,0,1-.067.652A.351.351,0,0,1,8.425,9.906Z" stroke="none"/><path d="M 8.42529296875 9.906254768371582 C 8.530762672424316 9.906254768371582 8.631352424621582 9.839844703674316 8.708492279052734 9.720705032348633 C 8.830562591552734 9.527344703674316 8.858882904052734 9.253905296325684 8.775882720947266 9.068354606628418 L 4.922362327575684 0.3320350050926208 C 4.831542491912842 0.1289049983024597 4.638182640075684 4.999999873689376e-06 4.416502475738525 4.999999873689376e-06 C 4.194822311401367 4.999999873689376e-06 4.000492572784424 0.1289049983024597 3.910642385482788 0.3320350050926208 L 0.05615250021219254 9.068354606628418 C -0.03075749985873699 9.265625 -0.01611750014126301 9.513674736022949 0.09326250106096268 9.687504768371582 C 0.1723625063896179 9.810544967651367 0.2924824953079224 9.878905296325684 0.4311524927616119 9.878905296325684 C 0.4702124893665314 9.878905296325684 0.513182520866394 9.873044967651367 0.5610324740409851 9.861325263977051 L 3.511232614517212 8.886714935302734 L 4.417482376098633 4.242185115814209 L 5.326662540435791 8.906254768371582 L 8.27197265625 9.861325263977051 C 8.322752952575684 9.890625 8.374512672424316 9.906254768371582 8.42529296875 9.906254768371582 M 8.42529296875 11.10625457763672 C 8.220499038696289 11.10625457763672 8.015207290649414 11.06202507019043 7.823238849639893 10.97733306884766 L 4.384124755859375 9.862135887145996 L 0.8924924731254578 11.01560497283936 L 0.846512496471405 11.02687454223633 C 0.7055525183677673 11.06139469146729 0.5658025145530701 11.07890510559082 0.4311524927616119 11.07890510559082 C -0.113597497344017 11.07890510559082 -0.6172574758529663 10.801344871521 -0.9161375164985657 10.33643531799316 L -0.9223974943161011 10.32659530639648 C -1.244237542152405 9.815125465393066 -1.29005753993988 9.147615432739258 -1.04199755191803 8.584554672241211 L 2.812752485275269 -0.1523550003767014 C 3.094432592391968 -0.7891749739646912 3.723762512207031 -1.199995040893555 4.416502475738525 -1.199995040893555 C 5.106212615966797 -1.199995040893555 5.734782695770264 -0.7908949851989746 6.017852306365967 -0.1577650010585785 L 6.020302295684814 -0.1522549986839294 L 9.873822212219238 8.584065437316895 C 10.117112159729 9.133703231811523 10.05825233459473 9.830587387084961 9.723202705383301 10.36130523681641 L 9.715782165527344 10.37290477752686 C 9.414022445678711 10.83895492553711 8.943662643432617 11.10625457763672 8.42529296875 11.10625457763672 Z" stroke="none" fill="#738ead"/></g></g></svg>