<svg xmlns="http://www.w3.org/2000/svg" xmlns:xlink="http://www.w3.org/1999/xlink" width="121" height="22" viewBox="0 0 121 22"><defs><clipPath id="b"><rect width="121" height="22"/></clipPath></defs><g id="a" clip-path="url(#b)"><path d="M11.04-11.76c-.94-1.58-2.28-2.48-4.9-2.48-3.14,0-4.82,1.58-4.82,3.88q0,3,3.96,3.9l1.42.32c2.32.52,2.98,1.1,2.98,2.54,0,1.54-1.04,2.46-3.48,2.46A4.347,4.347,0,0,1,2.16-3.36l-1.4.88C1.98-.44,3.92.24,6.24.24c3.24,0,5.14-1.42,5.14-4.02,0-2.2-1.32-3.38-4.42-4.04l-1.42-.3c-1.96-.42-2.56-1.26-2.56-2.32,0-1.38.82-2.42,3.16-2.42a3.509,3.509,0,0,1,3.5,1.98ZM14.44,0h1.72V-5.02c.04-2.3,1.12-3.48,2.76-3.48,1.38,0,2.14.8,2.14,2.86V0h1.72V-5.06c.06-2.26,1.18-3.44,2.88-3.44,1.32,0,2.06.76,2.06,2.78V0h1.72V-6.16c0-2.5-1.04-3.82-3.26-3.82A3.722,3.722,0,0,0,22.46-7.6a2.855,2.855,0,0,0-3-2.38A3.561,3.561,0,0,0,16.1-7.94l-.18-1.8H14.44ZM36.1-1.14c-1.44,0-2.06-.6-2.06-1.6,0-1.28.76-1.88,2.62-1.88h2.5v.04C39.14-2.4,37.9-1.14,36.1-1.14Zm3.16-.64L39.4,0h1.48V-5.96c0-3.04-1.68-4.02-4.18-4.02-1.92,0-3.2.56-3.94,1.64l.96,1.04a3.224,3.224,0,0,1,2.82-1.3c1.72,0,2.58.64,2.62,2.66H36.64c-3.18,0-4.28,1.46-4.28,3.26,0,1.88,1.4,2.92,3.36,2.92A3.706,3.706,0,0,0,39.26-1.78ZM44.46,0h1.72V-4.68c.06-2.5,1.26-3.82,3.66-3.58V-9.9a3.532,3.532,0,0,0-3.72,2.22l-.18-2.06H44.46Zm6.6-9.74V-8.4h1.72v5.16c0,2.46,1.2,3.48,3.12,3.48a4.44,4.44,0,0,0,1.66-.28l-.28-1.4a3.464,3.464,0,0,1-1.18.2c-.96,0-1.64-.34-1.64-2.06V-8.4h2.82V-9.74H54.46V-12.6H52.78v2.86Zm7-4.26,4.9,14H65.2l4.9-14H68.28L64.1-1.62,59.94-14Zm13.76,1.24A1.054,1.054,0,0,0,73-11.62a1.054,1.054,0,0,0,1.18-1.14A1.039,1.039,0,0,0,73-13.88,1.039,1.039,0,0,0,71.82-12.76Zm.32,3.02V0h1.72V-9.74Zm8.6,8.68a3.03,3.03,0,0,1-2.96-1.56l-1.22.88C77.44-.28,78.82.24,80.72.24c2.96,0,3.92-1.46,3.92-2.86,0-1.42-.7-2.34-3.14-2.88l-1.1-.24c-1.4-.3-1.78-.86-1.78-1.58,0-.82.68-1.32,2-1.32a2.867,2.867,0,0,1,2.56,1.28l1.1-1.06a4.07,4.07,0,0,0-3.54-1.56c-2.54,0-3.72,1.24-3.72,2.88,0,1.34.82,2.38,3.06,2.84l1.06.22c1.32.26,1.88.62,1.88,1.54C83.02-1.64,82.36-1.06,80.74-1.06Zm6.82-11.7a1.054,1.054,0,0,0,1.18,1.14,1.054,1.054,0,0,0,1.18-1.14,1.039,1.039,0,0,0-1.18-1.12A1.039,1.039,0,0,0,87.56-12.76Zm.32,3.02V0H89.6V-9.74ZM92.64-4.9c0,3.6,1.66,5.14,4.72,5.14,3.08,0,4.72-1.64,4.72-5.14,0-3.56-1.56-5.08-4.72-5.08C94.34-9.98,92.64-8.42,92.64-4.9Zm7.72.02c0,2.74-.96,3.74-3,3.74s-3-1-3-3.74c0-2.76.92-3.72,3-3.72C99.4-8.6,100.36-7.64,100.36-4.88Zm4.72-4.86V0h1.72V-4.86c.06-2.34,1.28-3.66,3.18-3.66,1.54,0,2.4.8,2.4,2.84V0h1.72V-6.08c0-2.56-1.16-3.9-3.6-3.9a3.857,3.857,0,0,0-3.74,2.1l-.18-1.86Z" transform="translate(3.46 17.854)" fill="#003c51"/></g></svg>