<svg xmlns="http://www.w3.org/2000/svg" xmlns:xlink="http://www.w3.org/1999/xlink" width="16" height="16" viewBox="0 0 16 16"><defs><clipPath id="b"><rect width="16" height="16"/></clipPath></defs><g id="a" clip-path="url(#b)"><path d="M-9410.324-17098.3a.6.6,0,0,1-.6-.6v-10.256a.6.6,0,0,1,.6-.6.6.6,0,0,1,.6.6v10.256A.6.6,0,0,1-9410.324-17098.3Z" transform="translate(9418.324 17112.027)" fill="#2a354b"/><path d="M-9403.92-17096.8h-3a.6.6,0,0,1-.6-.6.6.6,0,0,1,.6-.6h3a.6.6,0,0,1,.6.6A.6.6,0,0,1-9403.92-17096.8Z" transform="translate(9417.098 17105.402)" fill="#2a354b"/><path d="M-9403.92-17096.8h-3a.6.6,0,0,1-.6-.6.6.6,0,0,1,.6-.6h3a.6.6,0,0,1,.6.6A.6.6,0,0,1-9403.92-17096.8Z" transform="translate(-9401.098 -17089.469) rotate(-180)" fill="#2a354b"/><path d="M-9407.405-17101.625a.5.5,0,0,1-.354-.146.5.5,0,0,1,0-.707l1.379-1.379-1.379-1.379a.5.5,0,0,1,0-.707.5.5,0,0,1,.707,0l2.086,2.086-2.086,2.086A.5.5,0,0,1-9407.405-17101.625Z" transform="translate(9419.717 17111.857)" fill="#2a354b"/><path d="M-9407.405-17101.625a.5.5,0,0,1-.354-.146.5.5,0,0,1,0-.707l1.379-1.379-1.379-1.379a.5.5,0,0,1,0-.707.5.5,0,0,1,.707,0l2.086,2.086-2.086,2.086A.5.5,0,0,1-9407.405-17101.625Z" transform="translate(-9403.718 -17095.926) rotate(-180)" fill="#2a354b"/></g></svg>