<svg xmlns="http://www.w3.org/2000/svg" xmlns:xlink="http://www.w3.org/1999/xlink" width="130" height="19" viewBox="0 0 130 19"><defs><clipPath id="b"><rect width="130" height="19"/></clipPath></defs><g id="a" clip-path="url(#b)"><g transform="translate(-7.429 -18.779)"><g transform="translate(8.43 19.799)"><path d="M17.04,20.15h3.1V28c0,3.974-2.176,5.677-5.828,5.677S8.43,31.939,8.43,28V20.15h3.1v8.023c0,2.006,1.041,2.933,2.763,2.933s2.763-.927,2.763-2.933Z" transform="translate(-8.43 -19.936)" fill="#fff"/><path d="M38.311,23.639a3.107,3.107,0,0,0-2.857-1.552c-1.552,0-2.176.631-2.176,1.457,0,.719.36,1.262,1.892,1.646l1.325.3c3.009.681,4.214,1.968,4.214,3.974,0,2.555-1.93,4.068-5.374,4.068-2.233,0-4.22-.587-5.374-2.523l2.025-1.495a3.676,3.676,0,0,0,3.349,1.892c1.665,0,2.46-.53,2.46-1.571,0-.757-.435-1.262-1.968-1.59l-1.306-.3c-2.952-.681-4.068-2.2-4.068-4.144,0-2.271,1.836-3.993,4.977-3.993,2.29,0,3.993.662,5,2.479l-2.113,1.35Z" transform="translate(-16.379 -19.81)" fill="#fff"/><path d="M59.983,20.15v2.611h-4.05V33.4h-3.1V22.761H48.78V20.15h11.2Z" transform="translate(-23.328 -19.936)" fill="#fff"/></g><path d="M83.733,22.7a3.67,3.67,0,0,0-3.652-2.025c-2.346,0-3.349,1.041-3.349,2.555,0,1.306.833,2.138,2.933,2.63l1.192.284c2.952.7,4.087,1.7,4.087,3.633,0,2.328-1.684,3.69-4.75,3.69-2.29,0-3.917-.7-5.015-2.523l.87-.568a4.251,4.251,0,0,0,4.125,2.176c2.592,0,3.709-1.041,3.709-2.725,0-1.325-.681-2.025-3.154-2.649l-1.262-.3c-2.523-.631-3.785-1.7-3.785-3.633,0-2.063,1.514-3.463,4.415-3.463,2.328,0,3.614.776,4.523,2.346l-.889.574Z" transform="translate(-24.646)" fill="#fff"/><path d="M95.43,26.562h.927l.114,2.025a3.426,3.426,0,0,1,3.312-2.233,2.7,2.7,0,0,1,2.857,2.517h0a3.478,3.478,0,0,1,3.52-2.523q3.009,0,3.009,3.52v5.809h-1.06V30.151c0-2.138-.852-2.9-2.252-2.9-1.779,0-2.933,1.306-3.028,3.539v4.882h-1.06V30.189c0-2.157-.889-2.933-2.309-2.933-1.741,0-2.857,1.306-2.971,3.614v4.806H95.43V26.556Z" transform="translate(-32.123 -2.423)" fill="#fff"/><path d="M124.964,35.9c-1.892,0-3.154-.984-3.154-2.725s1.262-2.952,3.974-2.952h2.706c0-2.309-.889-2.99-2.744-2.99a3.247,3.247,0,0,0-2.9,1.262l-.631-.631A4.027,4.027,0,0,1,125.8,26.37c2.384,0,3.728.946,3.728,3.671v5.677h-.908l-.076-2.012A3.616,3.616,0,0,1,124.964,35.9Zm3.52-4.415v-.416h-2.668c-1.987,0-2.971.631-2.971,2.063,0,1.211.795,1.892,2.365,1.892,1.968,0,3.16-1.318,3.274-3.532h0Z" transform="translate(-41.863 -2.433)" fill="#fff"/><path d="M139.77,26.629h.927l.095,2.271a3.419,3.419,0,0,1,3.5-2.365v1c-2.1-.132-3.33,1.173-3.463,3.614v4.6h-1.06Z" transform="translate(-48.494 -2.491)" fill="#fff"/><path d="M149.862,25.073V22.31H150.9v2.763h2.933V25.9H150.9v5.172c0,2.006.738,2.4,1.836,2.4a3.446,3.446,0,0,0,1.211-.208l.17.87a4.082,4.082,0,0,1-1.552.265c-1.665,0-2.706-.908-2.706-3.154V25.9H148.14v-.826Z" transform="translate(-51.585 -0.934)" fill="#fff"/><path d="M166.242,19.82c3.879,0,5.809,1.93,5.809,6.831s-2.025,6.831-5.809,6.831-5.772-1.949-5.772-6.831S162.476,19.82,166.242,19.82Zm0,12.754c2.99,0,4.712-1.419,4.712-5.942s-1.722-5.9-4.712-5.9-4.674,1.381-4.674,5.923,1.7,5.9,4.674,5.9Z" transform="translate(-56.137 -0.015)" fill="#fff"/><path d="M185.026,26.562l.095,2.006a3.6,3.6,0,0,1,3.6-2.214c2.479,0,3.785,1.665,3.785,4.75s-1.457,4.788-4.068,4.788A3.437,3.437,0,0,1,185.14,34v5.2h-1.06V26.588Zm3.293,8.459c2.1,0,3.154-1.362,3.154-3.917s-1.022-3.879-3.009-3.879-3.293,1.262-3.293,3.955S186.5,35.021,188.319,35.021Z" transform="translate(-64.855 -2.424)" fill="#fff"/><path d="M207.118,33.377c0-.965-.53-1.381-2.157-1.741l-.852-.189c-1.987-.435-2.9-1.192-2.9-2.523,0-1.495,1.041-2.611,3.33-2.611A3.7,3.7,0,0,1,207.8,27.75l-.7.631a2.93,2.93,0,0,0-2.611-1.262c-1.552,0-2.271.662-2.271,1.665,0,.814.473,1.262,2.025,1.646l.965.227c2.328.511,2.914,1.362,2.914,2.523,0,1.419-.889,2.63-3.52,2.63a4.223,4.223,0,0,1-3.841-1.76l.776-.587a3.346,3.346,0,0,0,3.1,1.533c1.8.063,2.479-.688,2.479-1.621Z" transform="translate(-71.014 -2.407)" fill="#fff"/></g></g></svg>