<svg xmlns="http://www.w3.org/2000/svg" xmlns:xlink="http://www.w3.org/1999/xlink" width="31" height="34" viewBox="0 0 31 34"><defs><clipPath id="b"><rect width="31" height="34"/></clipPath></defs><g id="a" clip-path="url(#b)"><path d="M5.853,20.59a5.609,5.609,0,0,1,4.833,2.343L8.55,24.661a3.99,3.99,0,0,0-2.715-1.133c-1.191,0-1.771.486-1.771.939,0,.6.555.951,1.771,1.251l1.09.265c3.076.742,4.206,2.167,4.206,3.95,0,2.348-2.1,3.984-5.6,3.984-1.961,0-4.378-.822-5.31-2.512l2.136-1.727a4.231,4.231,0,0,0,3.156,1.406c1.137,0,2.039-.379,2.039-1.061,0-.547-.412-.758-1.538-1.041L4.869,28.7C1.812,27.94.628,26.215.628,24.556c0-2.148,1.9-3.966,5.225-3.966Zm24.845.366v2.99H26.954v9.569H23.494V23.947H19.751v-2.99ZM3.445,0V7.443A2.087,2.087,0,0,0,5.668,9.771,2.075,2.075,0,0,0,7.873,7.443V0h3.445V7.427c0,3.453-2.067,5.532-5.632,5.532C1.979,12.96,0,10.792,0,7.427V0ZM27.663,3.723V8.6H22.785V3.723Z" transform="translate(0)"/></g></svg>